<?xml version="1.0" encoding="UTF-8"?>
<svg id="Layer_2" data-name="Layer 2" xmlns="http://www.w3.org/2000/svg" xmlns:xlink="http://www.w3.org/1999/xlink" viewBox="0 0 371.09 288.22">
  <defs>
    <style>
      .cls-1 {
        fill: #717978;
      }

      .cls-2 {
        fill: #26d557;
      }

      .cls-3 {
        fill: #e3a491;
      }

      .cls-4 {
        fill: #15621b;
      }

      .cls-5 {
        fill: #2ebf58;
      }

      .cls-6 {
        fill: #3da059;
      }

      .cls-7 {
        fill: #659978;
      }

      .cls-8 {
        fill: #eac1af;
      }

      .cls-9 {
        fill: #242625;
      }

      .cls-10 {
        fill: #241512;
      }

      .cls-11 {
        fill: #373737;
      }

      .cls-12 {
        fill: #c67f6c;
      }

      .cls-13 {
        fill: #fbefd0;
      }

      .cls-14 {
        fill: #28da5e;
      }

      .cls-15 {
        fill: #cfb593;
      }

      .cls-16 {
        fill: #d69280;
      }

      .cls-17 {
        fill: #424947;
      }

      .cls-18 {
        fill: url(#linear-gradient);
      }
    </style>
    <linearGradient id="linear-gradient" x1="518.8" y1="-583.76" x2="480.88" y2="-470.18" gradientTransform="translate(74.18 -198.9) scale(.49 -.49)" gradientUnits="userSpaceOnUse">
      <stop offset="0" stop-color="#1d1a1c"/>
      <stop offset="1" stop-color="#424546"/>
    </linearGradient>
  </defs>
  <g id="Layer_1-2" data-name="Layer 1">
    <g>
      <path class="cls-11" d="M370.92,47.13c-.52-18.61-14.91-54.93-37.79-45.63-4.4,2.21-7.1,7.23-9.72,11.35-2.78,4.51-5.34,9.19-8.26,13.59-7.23,11.03-16.4,19.62-26.79,26.73-5.61,4.12-12.18,8.45-19.46,6.04-10.37-3.09-20.77-4.97-31.4-6.6-9.66-.92-19.85-1.01-29.46-.97-21.02.65-42,6.02-61,15.05-4.48,2.06-9.18,4.36-13.63,6.75-3.01,1.68-6.77,2.93-9.79.91-3.5-2.32-6.43-5.89-9.91-8.53-22.1-17.36-50.98-31.57-79.23-33.82-13.75-.24-28.74,7.83-33.08,21.4-5.6,26.94,6.24,54.91,24.92,76.41,9.56,10.6,22.08,19.72,35.66,24,11.89,3.13,7.07,9.01,6.49,18.29-1.51,16.64,2.03,34.43,12.41,48.22,3.37,3.61,7.54,4.98,10.31,8.83,2.63,3.97,4.59,8.65,7.69,12.39,10.49,13.68,27.5,23.86,43.33,30.89,46.8,19.78,107.08,22.88,151.86-1.63,26.88-14.22,61.5-43.4,56.08-79.27-1.12-9.99-7.96-18.83-9.81-28.82-1.21-8.56-1.28-17.67-3.03-26.19-.56-4.77-4.1-10.4-.72-14.67,1-1.33,2.52-2.48,3.9-3.55,4.48-3.43,8.48-7.61,11.63-11.96,12.12-17.15,20.22-38.47,18.81-58.93l-.02-.29Z"/>
      <path class="cls-13" d="M200.79,58.07c10.97-1.29,21.38.26,32.25-.09l2.96.77,1.3-.25,6,.99c3.12.67,7.54,2.2,10.64,2.04l5.53,1.15c26.61,7.04,46.82,22.13,60.66,46.07,2.73,4.73,5.46,9.78,7.19,14.98,2.09,4.72,3.34,9.64,4.51,14.66-6.63-6.95-12.25-11.53-22.31-11.81l-1.08-.02c-7.67,1.98-13.1,5.15-17.23,12.2-3.13,5.34-4.88,11.48-6.71,17.35-1.57,13.21-2.49,35.24,5.87,46.65,3.21,4.39,10,6.08,15.1,6.6,7.21.74,13.75-1.02,19.29-5.78,8.73-7.5,11.69-17.66,13.93-28.44l2.9,7.64c4.49,9.62,4.28,21.66.68,31.53-9.34,25.51-36.77,44.92-60.47,55.75-38.08,17.4-91.13,14.4-129.84-.25-19.54-7.39-45.51-21.47-54.34-41.59-1.43-3.25-3.64-11.47-6.26-13.48-1.45,1.32-2.63,4.25-4.45,4.44-1.43-1.6-2.41-3.3-3.47-5.15-1.59-2.66-2.9-5.28-4.1-8.13-6.16-13.47-6.79-29.53-3.37-43.76,6.81-.41,11.05-1.64,16.76-5.41-5.95-.53-11.74-1.65-17.55-2.99-.05-.46-.08-1.05-.29-1.46-1.07-2.13-3.59-2.09-5.69-2.59,8.51-.14,14.43-.92,21.05-6.69,1.3-.22,2.49-1.1,3.64-1.75l-1.74-3.23c-2.58-.75-4.89-4.19-6.52-6.19-1.05-.78-2.2-2.39-2.55-3.67-.29-1.05.22-1.45.69-2.34,7.79-4.68,12.59.73,20.14,2.06l1.18-1,.17-3.5.62-.48c3.66,4.32,4.55,12.48,10.11,14.79l.84-.88c7.39-3.52,12.19-10.82,15.44-18.05.82-1.47,1.55-2.89,2.14-4.47,4.53-12.02,2.26-21.86-2.94-33.11,5.28-2.79,10.63-5.49,16.01-8.1,2.72-1.42,5.71-2.51,8.54-3.72,1.37-.79,2.65-1.2,4.15-1.67l6.93-3.02c3-.41,6.04-1.67,9.14-2.14,8.03-1.9,16.24-4.16,24.53-4.42Z"/>
      <path class="cls-11" d="M200.67,57.94c10.27-1.11,20.28.09,30.49-.02,2.55,0,4.55.7,7.22.67,4.24.49,8.39,1.76,12.63,2.59,2.51.25,5.21.62,7.64,1.22.77.18,1.02.31,1.28.73.75,1.32,3.58,6.48,5.06,9.16,3.98,7.72,6.89,15.98,8.26,24.52,1.38,11.87,2.52,27.35-.29,39.94-1.4,13.41-2.7,27.8-5.9,40.85-.36,2.23-3.1,2.71-4.4.89-1.22-1.56-1.82-3.56-2.1-5.51-.44-3.17-1.23-6.26-2.09-9.37-11.48-42.44-43.55-75.87-86.06-87.79-5.35-1.64-11.01-3.19-15.77-6.01-1.67-1.21,3.43-2.15,4.22-2.72,1.18-.51,3.34-1.45,4.59-1.99,3.09-1.11,6.2-1.63,9.4-2.49,8.47-1.89,16.98-4.3,25.69-4.65h.15Z"/>
      <path class="cls-11" d="M200.79,58.07c10.97-1.29,21.38.26,32.25-.09l2.96.77c.89,3.94,2.14,7.75,3.36,11.6,2.53,4.2,3.83,8.62,4.98,13.35-4.88,2.08-9.51,3.49-14.73,4.53-6.21-4.21-13.59-10.31-21.07-11.63-.98.3-1.67.51-2.55,1.06-4.04-1.14-8.13-3.46-12.23-4.79-8.68-2.82-18.54-4.05-26.64-8.25,3-.41,6.04-1.67,9.14-2.14,8.03-1.9,16.24-4.16,24.53-4.42Z"/>
      <path class="cls-17" d="M200.79,58.07c10.97-1.29,21.38.26,32.25-.09l2.96.77c.89,3.94,2.14,7.75,3.36,11.6-4.03-.65-11.35-2.79-14.97-.57l-.51,1.01c-.04,1.03-.16,1.65-.44,2.62-2.2.12-3.61-1.63-5.33-2.93-2.5-1.53-4.82-3.21-7.15-4.98-2.66-2.23-5.1-2.26-7.91-3.79-1.67-.91-1.74-1.97-2.26-3.65Z"/>
      <path class="cls-5" d="M210.97,65.51c1.49-1.37,1.41-1.52,3.41-1.5l3.09,2.1,6.41,4.69c-.04,1.03-.16,1.65-.44,2.62-2.2.12-3.61-1.63-5.33-2.93-2.5-1.53-4.82-3.21-7.15-4.98Z"/>
      <path class="cls-11" d="M176.27,62.49c8.03-1.9,16.24-4.16,24.53-4.42.52,1.68.59,2.74,2.26,3.65,2.81,1.53,5.26,1.55,7.91,3.79,2.33,1.77,4.65,3.44,7.15,4.98-12.33,5.76-28.06-3.78-40.38-6.48-.27-.06-.55-.11-.82-.17l-.65-1.35Z"/>
      <path class="cls-5" d="M236.01,58.75l1.3-.25,6,.99c1.37,2.31,2.08,3.69,2.31,6.36.04.44.1.87.15,1.31l.09.97.99,3.57c1.22,4.49,4.05,12.31,1.05,16.51-3.67,5.16-12.92,5.31-18.7,6.05-6.47-2.69-12.18-7.68-18.29-11.15-13.75-7.79-34.93-13.95-50.71-15.47l6.93-3.02c8.1,4.2,17.97,5.43,26.64,8.25,4.11,1.33,8.19,3.64,12.23,4.79.88-.54,1.57-.76,2.55-1.06,7.48,1.32,14.86,7.42,21.07,11.63,5.22-1.04,9.85-2.45,14.73-4.53-1.15-4.74-2.44-9.15-4.98-13.35-1.22-3.84-2.48-7.66-3.36-11.6Z"/>
      <path class="cls-9" d="M236.01,58.75l1.3-.25c3.18,5.86,11.16,18.48,9.39,25.3-.6,2.3-2.25,3.89-4.27,5.04-3.6,2.03-9.01,2.79-13.07,3.49-7.69-5.08-15.39-10.04-23.36-14.66.88-.54,1.57-.76,2.55-1.06,7.48,1.32,14.86,7.42,21.07,11.63,5.22-1.04,9.85-2.45,14.73-4.53-1.15-4.74-2.44-9.15-4.98-13.35-1.22-3.84-2.48-7.66-3.36-11.6Z"/>
      <path class="cls-14" d="M253.94,61.53l5.53,1.15,6.33,11.52c2.24,4.98,4.1,9.87,5.63,15.11l1.36,5.88c1.56,12.17,2.84,30.28-.31,42.31l.11,2.55c-2.06,12.75-2.64,26.95-6.27,39.27-.74-8.45,1.09-18.11,1.83-26.61.54-6.18.65-12.39,1.31-18.56.05-3.19.41-6.23.84-9.38.1-7.73.4-15.54-.32-23.25l-1.41-9.84c-1.23-4.67-3.22-9.15-5.02-13.62l-3.56-6.37c-1.86-3.49-4.71-6.39-6.04-10.16Z"/>
      <path class="cls-17" d="M243.3,59.49c3.12.67,7.54,2.2,10.64,2.04,1.34,3.77,4.18,6.67,6.04,10.16-1.76,3.41-2.47,6.26-3.1,10.01-2.36-3.63-6.86-12.55-11.03-13.57l-.09-.97c-.05-.44-.11-.87-.15-1.31-.24-2.67-.94-4.05-2.31-6.36Z"/>
      <path class="cls-15" d="M92.84,156.99c1.86-.45,3.83,0,5.81.03,3.18.26,7.48-.86,9.38,2.26,2.52,4.57,9.24,19.36,11.58,25.8.47,1.37.96,2.34.22,2.87-1.32.91-3.83.02-4.96.29-1.01.31-.59,1.66-.42,2.52,1.94,7.58,3.72,15,7.02,22.11.37.95.98,2.46-.17,2.96-.89.45-2.64-.25-3.61.09-2.36.92,1.03,8.54,1.89,10.48,17.61,33.23,58.76,46.16,94.14,47.2,7.08.1,14.65.79,21.77-.43,2.68-.46,5.08-1.27,7.09-2.45,1.02-.56,2.08-1.05,3.24-1.26,2.39-.41,4.92.15,7.34-.2,4.95-.63,9.05-3.37,13.56-4.76,3.28-1.24,3.15,2.63,5.96,2.32,14.37-2.25,42.66-22.01,50.59-31.02,9.4-10.22,18.68-23.82,19.15-37.14.1-4.21-1-8.53-.97-12.74-.01-3.07.86-1.93,1.46,0,11.22,37.27-27.4,67.58-57,82.25-44.38,21.71-105.12,16.68-149.23-5.01-14.99-7.67-30.1-17.79-37.97-32.74-1.51-2.78-2.6-6.53-3.96-9.84-.84-1.69-1.36-3.92-2.97-4.9-1.57-.42-2.47,2.1-3.93,2.52-1.33.46-2.3-.86-2.99-1.9-9.92-15.2-13.45-34.62-9.23-52.32.57-1.62,2.17-2.18,3.76-2.36,4-.52,7.23-1.55,10.79-3.55.8-.43,1.65-.82,2.52-1.04l.14-.03Z"/>
      <path class="cls-11" d="M101.87,157.24c2.17-.13,3.53-.31,5.45.92,1.94,2.8,13.17,27.42,13.2,30.05-1.6.69-3.32.58-4.99.07-.11-.03-.2-.13-.32-.17-.16-.06-1.39-.36-1.58-.41,2.55,9.49,4.34,18.73,8.97,27.49l-.11,1.17c-2.14-.03-3.81-.46-5.83-1.07-2.78-1.36-5.22-2.6-7.52-4.71-1.95-1.79-3.79-3.87-6.43-4.52l-.84,1.05c-.26,5.16,1.05,9.82,2.6,14.67-2.14-1.57-4.14-3.12-5.92-5.09-7.66-8.47-13.66-18.99-12.96-30.77.72-12.1,7.72-20.89,16.27-28.68Z"/>
      <path class="cls-14" d="M100.54,171.32c2.44,4.7.95,11.02,2.53,16.04,1.6,5.08,7.67,9.63,7.44,14.96-3.53-2.98-6.62-7.15-8.59-11.33-3.08-6.52-3.95-12.9-1.37-19.67Z"/>
      <path class="cls-13" d="M75.99,162.12c1.74.17,4.41.04,5.86.97-1.45,11.82-5.28,28.33-.3,39.8-.69,1.59-.82,1.96-2.19,2.99-6.16-13.47-6.79-29.53-3.37-43.76Z"/>
      <path class="cls-10" d="M251.39,269.47c6.92-.26,11.9-4.79,18.26-5.78l-.09,1.35c-6.62,4.4-14.32,9.83-22.81,7.78-1.51-.36-2.12-.8-3.21-1.84l-.21-.71c2.68-.51,5.42-.18,8.06-.79Z"/>
      <path class="cls-8" d="M81.55,202.89c1.82,2.77,3.5,4.21,3.49,7.64-.23.25-.46.5-.68.76-1,1.18-.79,1.28-.9,2.72-1.59-2.66-2.9-5.28-4.1-8.13,1.37-1.03,1.5-1.4,2.19-2.99Z"/>
      <path class="cls-14" d="M155.6,69.21c.47.03.92.25,1.34.49,3.01,1.65,6.35,2.94,9.78,4.06,47.62,11.7,84.04,49.58,93.72,97.82.14,1.05.86,4.4-.24,1.96-2.07-4.5-3.97-8.98-5.88-13.43-4-9.32-8.14-18.62-13.69-27.27-22.21-35.8-54.2-50.58-92.83-60.46,1.99-1.24,4.38-1.96,6.51-2.91.37-.15.78-.27,1.16-.26h.12Z"/>
      <path class="cls-15" d="M105.13,126.85l.17-3.5.62-.48c3.66,4.32,4.55,12.48,10.11,14.79.32,2.3.88,4.5,0,6.72-1.48,1.03-2.14,1.21-3.94.8-4.91-1.1-15.73-9.46-19.89-7.19-2.58-.75-4.89-4.19-6.52-6.19-1.05-.78-2.2-2.39-2.55-3.67-.29-1.05.22-1.45.69-2.34,7.79-4.68,12.59.73,20.14,2.06l1.18-1Z"/>
      <path class="cls-15" d="M291.15,131.26c2.57-4.96,6.88-9.43,12.17-11.65,8.41-3.51,16.06,1.67,21.05,3.26,2.55.62,4.29,2.6,5.13,5.1.83,2.54,3.1,8.98,2.34,10.42-.37.43-1.85-1.92-3.19-2.98-17.95-17.4-36.6-5.64-43.2,17.66-1.81,5.7-1.23.67-.89-1.66,1.08-6.94,3.33-13.69,6.52-20l.08-.14Z"/>
      <path class="cls-11" d="M93.92,141.22c-.02,2.42-.58,3.62-2.27,5.37-4.37,4.54-10.48,6.04-16.45,7.13-.05-.46-.08-1.05-.29-1.46-1.07-2.13-3.59-2.09-5.69-2.59,8.51-.14,14.43-.92,21.05-6.69,1.3-.22,2.49-1.1,3.64-1.75Z"/>
      <path class="cls-11" d="M136.48,146.31c12.24-19.28,39.71-23.51,58.19-10.67,15.63,10.62,24.49,29.85,22.85,48.65.43,5.7,1.35,12.14-.72,17.61-1.82,5.58-5.17,2.46-5.81-1.71-.23-.35-.38-7.77-.72-5.28-.44,4.05-1.24,9.58,1.62,12.37.69.71,2.08.77,2.75,1.5.97,2.19-4.24,4.03-5.71,4.88-8.15,4.54-16.41,9.35-25.46,11.57-36.02,7.91-55.43-23.81-52.29-56.34.26-1.65-.99-2.87-1.16-4.44-.67-6.44,2.67-13.44,6.38-18.03l.08-.11Z"/>
      <path class="cls-4" d="M160.25,147.69c7.17-3.68,17.57-2.61,25.12.26,10.04,3.97,17.24,12.57,21.18,22.47,1.47,3.85,3.04,8.34,2.77,12.21-.45,1.92-2.23,3.31-2.91,5.22-1.02,2.23-1.75,4.35-2.92,6.43-8.68,16.84-33.61,18.14-46.13,4.79-1-.96-1.9-2.02-2.81-3.01-.44-.42-.96-.82-1.58-.8-.78-.01-1.29,1.07-1.98,1.28-.42.14-.87.07-1.27-.16-.94-.55-1.59-1.65-1.89-2.71-3.29-10.16-3.98-22.49,1.63-31.75,2.19-3.77,6.3-7.08,8-11.01.54-1.34,1.37-2.47,2.69-3.15l.12-.07Z"/>
      <path class="cls-13" d="M179.8,157.78c6.48-2.61,13.77,3.24,12.77,10.12-.78,7.44-10.32,10.99-15.79,5.88-5.23-4.5-3.64-13.6,2.88-15.95l.14-.05Z"/>
      <path class="cls-13" d="M158.05,149.11c-.39,3.69-5.31,8.08-7.5,11.13-7.23,10.05-6.1,24.4-1.98,35.55l2.55,1.53c.54-1.77.67-1.78,2.19-2.85,1.35,1.76,2.78,3.36,4.36,4.91,5.99,5.85,13.8,9.01,22.18,8.77,11.1-.33,20.02-5.79,24.63-15.91,1.11-2.44,2.23-6.27,4.18-8.09.21-.19.46-.33.69-.5.27,1.86.5,3.74.82,5.6l.21,4.39c-.36,3.86-1.58,9.99,1.03,13.28.29.36.66.64.99.96-3.13,1.23-6.33,2.38-9.4,3.77-11.51,5.46-22.03,10.22-35.14,7.3-10.2-2.27-18.74-8.67-24.14-17.56-5.37-8.85-6.92-19.09-4.31-29.12,2.81-10.79,9.2-17.72,18.62-23.15Z"/>
      <path class="cls-2" d="M210.14,189.32c-3.01,6.73-6.11,12.6-10.7,16.97-16.12,14.74-42.24,9.85-50.93-10.62-5.31-14.68-4.85-29.82,6.77-41.2,1.36-1.73,2.44-3.52,2.74-5.16.26-.72,1.2-1.01,1.83-1.45.13-.05.28-.13.43-.1.25.09.99.76,1.08,1.02-.18.75-1,1.38-1.43,2.07-6.67,8.23-12.52,16.53-11.18,27.57.56,5.59,1.91,11.11,4.57,16.07,6.07,8.39,15.81,14.08,26.23,13.72,11.35-.18,20.65-5.98,25.13-16.32.99-2.26,2.02-5.49,3.64-7.32.3-.25.95-1.14,1.14-.43.21,1.66.54,3.41.7,5.08l-.02.13Z"/>
      <path class="cls-15" d="M218,182.03c-.14,1.12-.46.98-.91-.32-1.84-6.4-3.83-12.86-7.17-18.66-14.32-26.07-48.25-37.49-69.66-12.62-2.75,2.86-5.07,6.24-6.48,9.93-.58,1.25-2.48,6.67-3.54,5.36-2.25-7.58,4.44-17.6,9.16-23.42,7.42-9.46,19.02-15.14,31.01-15.11,28-.32,48.29,28.13,47.62,54.76v.08Z"/>
      <path class="cls-10" d="M250.71,222.11c2.2-5.21,5.42-9.89,10.31-13.01,4.89-3.38,12.03-4.1,16.68.08,8.15,6.28,9.28,13.63,7.24,23.12.08,1.56.47,4.04,2.4,4.11,1.7.07,3.71-.32,4.41-2.11.76-1.78,1.29-3.82,2.34-5.38,1.72-2.6,3.74-1.13,3.54,1.53-.03,3.61-1.29,6.85-3.42,10.26-3.29,5.38-8.55,9.37-15.09,10.36-2.61-.07-5.01-1.29-7.42-2.16-1.13-.45-2.29-.38-3.35.17-2.02,1.08-4.03,2.2-6.05,3.17-21.05,11.06-40.78.83-54.11-16.4-.81-.67-1.87.23-2.68,1.01-1.11,1.06-3.47,2.57-3.56.11.17-5.39,6.71-9.31,11.7-8.51.85.16,2.09.85,1.8,1.86-.34,1.14-.98,2.4.15,3.33,10.65,10.38,27.89,15.25,41.87,9.05,1.49-.59,3.34-1.97,1.13-3.04-7.74-3.71-11.78-8.9-7.95-17.41l.06-.14Z"/>
      <path class="cls-3" d="M281.29,220.6c-.26.51-1.13,1.59-1.49,2.08.1,1.52.35,2.79.72,4.24.37,1.43.63,2.54-.12,3.95-.91,1.68-1.89,2.28-3.61,2.91-1.8-.59-2.12-.73-3.01-2.56-1.24-2.49-1.55-6.84-2.08-9.65-.63,4.83-.59,10.91-4.94,14.02-1.48,1.05-3.1.99-4.8.61-2.97-.69-5.69-2.97-7.9-4.97,1.48-.04,3.5.09,4.88-.31,1.93-.56,2.14-1.8,2.92-3.44-1.89-.76-3.63-.29-5.56-.58-2.71-.42-4.01-2.79-5.67-4.72,1.43-3.01,2.9-6.03,5.13-8.53,3.35-3.77,8.35-7.31,13.59-7.36,2.09-.01,5.35.38,6.89,1.89.03.25.03.53.09.78.76,3.48,6.9,7.87,4.96,11.64Z"/>
      <path class="cls-15" d="M217.1,239.09c-1.21-1.38.51-3.37,2.03-2.34,11.65,7.83,27.11,12.29,40.11,4.83.34-.2.26-.76.43-1.12.45-.96,2.34-.19,3.67.29.82.3,1.27,1.22.93,2.03-1.74,4.07-14.31,7.31-17.92,7.25-8.77.7-22.76-3.56-29.25-10.94Z"/>
      <path class="cls-15" d="M291.49,235.06c-1.22,2.38-2.89,4.44-5.15,5.91-2.76,1.8-7.95,3.44-11.25,2.54-1.33-.36-1.17-.6-1.85-1.69.83-4.92,8.03-4.94,11.47-9.62.15-.2.29-.41.44-.62l1.06,3.79c1.87.61,3.35-.15,5.28-.3Z"/>
      <path class="cls-3" d="M5.74,62.99c.3-5.92.87-11.25,5.61-15.46,4.56-4.05,10.98-4.56,16.79-3.98,22.41,2.26,41.97,17.95,55.61,34.89,4.22,5.24,8.25,10.88,11.07,17.02-6.56-2.76-14.03-5.95-21.08-2.85-1.83.8-3.16,1.81-4.58,3.19l-.44.89c.57,4.15,4.34,6.65,7.51,9.01,5.06,3.8,10.55,6.94,15.08,11.41-5.1.76-11.5.79-14.96,5.18l-.69,2.43c1.03,7.24,3.75,9.78,9.2,14.27l5.41,3.99c-6.63,5.77-12.54,6.55-21.05,6.69-13.64-2.49-26.7-11.4-36.2-21.22C16.41,111.3,5.24,87.12,5.74,62.99Z"/>
      <path class="cls-12" d="M5.74,62.99c.3-5.92.87-11.25,5.61-15.46,4.56-4.05,10.98-4.56,16.79-3.98,22.41,2.26,41.97,17.95,55.61,34.89,4.22,5.24,8.25,10.88,11.07,17.02-6.56-2.76-14.03-5.95-21.08-2.85-1.83.8-3.16,1.81-4.58,3.19-1.1-3.29-3.09-5.73-5.38-8.29-11.14-12.46-29.19-28.33-46.95-28.96-4.87-.17-7.64,1.11-11.09,4.45Z"/>
      <path class="cls-12" d="M84.87,138.98c-1.59.06-3.47.22-5-.31-3.32-1.11-4.71-4.64-6.1-7.52-.37-1.55-.83-3.44-.75-5.03.12-2.34,1.42-3.63,2.92-5.22-3.96-5.29-8.69-11.73-9.39-18.46-.29-2.72.42-3.76,2.16-5.76.57,4.14,4.34,6.64,7.5,9.01,5.06,3.79,10.54,6.93,15.08,11.41-5.1.76-11.49.79-14.95,5.18l-.7,2.44c1.04,7.24,3.76,9.78,9.21,14.26Z"/>
      <path class="cls-4" d="M307.49,135.01c7.08.33,12.97,1.05,18.12,6.51,6.87,7.28,8.59,18.46,8.08,28.11-.31,5.78-1.41,13.03-4.81,17.81-.2.27-.39.55-.58.83-.12.17-.25.33-.38.5-3.22,6.72-8.15,11.66-15.29,14.14-4.96,1.73-10.99,2.16-15.73-.43-3.71-2.03-4.97-4.14-6.05-8.12-.07-2.81-.79-5.79-1.22-8.57-2.67-10.59-2.09-21.74,1.69-32,1.16-3.85,2.88-6.79,5.11-10.08,2.92-4.11,6.78-6.32,11.07-8.71Z"/>
      <path class="cls-13" d="M324.89,157.71c-3.93-10.27-7.85-14.05-17.14-19.4,3.2-1.24,6.84-.68,9.9.75,5.71,2.67,9.71,8.53,11.73,14.34,4.21,12.17,1.31,23.37-1.46,35.37-3.22,6.72-8.15,11.66-15.29,14.14-4.96,1.73-10.99,2.16-15.73-.43-3.71-2.03-4.97-4.14-6.05-8.12-.07-2.81-.79-5.79-1.22-8.57.68.64,1.37,1.27,2.09,1.88,3.66,3.12,8,6.33,13.08,5.71,6.09-.74,10.69-6.18,14.32-10.64,1.12-2.19,2.04-4.48,2.99-6.74,1.34-1.2,2.81-2.19,4.27-3.24.61-5.49-.02-9.82-1.49-15.06Z"/>
      <path class="cls-13" d="M295.2,159.59c-1.9-5.91,3.59-14.05,9.84-9.91,4.21,2.89,4.37,10.94.04,14.18-3.68,3.06-8.83.27-9.84-4.11l-.04-.16Z"/>
      <path class="cls-14" d="M326.41,172.7c-1.02,7.42-3.86,16.08-9.67,20.99-3.81,4.22-9.51,6.56-15.25,5.28-3.76-.78-7.21-2.35-10.44-4.48-.49-.69-.27-1.62-.45-2.44-.18-1.94-.79-3.98-.9-5.87.04-.07.11-.06.22.01,1.2,1.03,2.47,2.19,3.75,3.18,10.1,8.46,18.22,2.72,25.09-6.18,1.53-2.38,2.48-5.11,3.51-7.75,1.72-5.97,1.56-11.39,2.55-17.33.09-.43.2-.28.32.13,1.31,4.86,1.86,9.26,1.29,14.32l-.02.14Z"/>
      <path class="cls-3" d="M338.25,56.39c1.07-14.58-2.84-31.47,1.22-45.52.66-2.29,1.42-4.05,3.63-5.21,2.34.29,2.76.97,4.51,2.48,11.24,10.22,16.7,24.87,17.5,39.86.95,17.81-4.91,35.32-14.67,50.08-3.43,7.03-10.81,14.32-17.32,18.52l-3.88-7.95c2.65-2.32,6.23-4.89,8.06-7.91,1.19-1.97,1.33-3.25.74-5.42-1.27-1.34-2.46-2.46-3.13-4.22,1.79-5.34,6.62-9.79,9.16-15.01.14-.28.26-.57.4-.85l-3.88-2.35c-1.66.24-3.19.61-4.83.09-.69-2.22.14-4.18.79-6.31,1.04-3.49,1.41-6.67,1.7-10.28Z"/>
      <path class="cls-12" d="M344.48,75.24c2.99,2.79,3.58,6.31,3.7,10.28.11,3.77-.44,7.92.72,11.53l1.55,1.04c-3.43,7.03-10.81,14.32-17.32,18.52l-3.88-7.95c2.65-2.32,6.23-4.89,8.06-7.91,1.19-1.97,1.33-3.25.74-5.42-1.27-1.34-2.46-2.46-3.13-4.22,1.79-5.34,6.62-9.79,9.16-15.01.14-.28.26-.57.4-.85Z"/>
      <path class="cls-16" d="M347.61,8.15c-.76,1.45-1.04,2.57-1.39,4.15-.85,3.9-2.4,7.46-3.03,11.48-1.58,9.93-1.07,20.06-2.06,30.04v.89c-.15,3.38-2.59,14.68-1.84,16.67.23.63.88,1.01,1.3,1.51-1.65.25-3.19.61-4.83.1-.7-2.22.15-4.18.79-6.32,1.04-3.5,1.4-6.67,1.7-10.28,1.07-14.58-2.85-31.47,1.21-45.51.66-2.3,1.42-4.05,3.63-5.22,2.34.29,2.76.98,4.52,2.49Z"/>
      <path class="cls-11" d="M31.36,37.61c27.75.73,68.51,20.62,87.58,40.95,1.8,1.94,3.42,4.04,4.85,6.26,9.58,11.07,4.31,26.79,8.5,33.89-3.25,7.23-8.05,14.53-15.44,18.05-.04-1.28-.11-2.49-.27-3.76-3.62-28.01-17.34-54.96-39.01-73.42-5.8-4.94-12.87-8.3-18.93-12.91l-.53-.41c-8.77-3.59-17.58-6.31-26.75-8.66Z"/>
      <path class="cls-1" d="M31.36,37.61c27.75.73,68.51,20.62,87.58,40.95,1.8,1.94,3.42,4.04,4.85,6.26-3.61-.91-8.31-5.24-11.43-7.47-13.81-9.85-37.57-28.86-54.24-31.09-8.77-3.59-17.58-6.31-26.75-8.66Z"/>
      <path class="cls-18" d="M335.41,5.5l-4.38,13.05c1.31,4.51.43,9.76.27,14.42-.59,16.97-.89,38.15-9.78,53.22-1.14,1.94-2.09,2.71-4.22,3.34-3.39-2.15-6.07-5.69-8.66-8.73-6.16-7.22-15.82-12.91-23.79-18.05l.21-1.12c1.02-.51,1.84-1.09,3-1.12,8.59-5.24,16.1-11.51,22.96-18.84,3.26-3.69,6.16-7.57,9.04-11.56,4.96-8.23,9.44-17.03,15.35-24.62Z"/>
      <path class="cls-1" d="M311.03,41.68l3.1,3.34c-5.98,6.8-14.1,14.35-23.46,15.59-.9.12-1.71.02-2.6-.09,8.59-5.24,16.1-11.51,22.96-18.84Z"/>
      <path class="cls-6" d="M335.41,5.5l-4.38,13.05-5.86,12.1-5.11-.53c4.96-8.23,9.44-17.03,15.35-24.62Z"/>
      <path class="cls-7" d="M320.07,30.12l5.11.53c-3.42,5.05-7.13,9.7-11.05,14.36l-3.1-3.34c3.26-3.69,6.16-7.57,9.04-11.56Z"/>
    </g>
  </g>
</svg>